<?xml version="1.0" encoding="UTF-8" standalone="no"?>
<!-- Created with Inkscape (http://www.inkscape.org/) -->

<svg
   xmlns:dc="http://purl.org/dc/elements/1.1/"
   xmlns:cc="http://creativecommons.org/ns#"
   xmlns:rdf="http://www.w3.org/1999/02/22-rdf-syntax-ns#"
   xmlns:svg="http://www.w3.org/2000/svg"
   xmlns="http://www.w3.org/2000/svg"
   xmlns:sodipodi="http://sodipodi.sourceforge.net/DTD/sodipodi-0.dtd"
   xmlns:inkscape="http://www.inkscape.org/namespaces/inkscape"
   width="210mm"
   height="297mm"
   viewBox="0 0 210 297"
   version="1.1"
   id="svg8"
   inkscape:version="0.92.2 5c3e80d, 2017-08-06"
   sodipodi:docname="drawing.svg">
  <defs
     id="defs2" />
  <sodipodi:namedview
     id="base"
     pagecolor="#ffffff"
     bordercolor="#666666"
     borderopacity="1.0"
     inkscape:pageopacity="0.0"
     inkscape:pageshadow="2"
     inkscape:zoom="0.35"
     inkscape:cx="-125.71429"
     inkscape:cy="560"
     inkscape:document-units="mm"
     inkscape:current-layer="layer1"
     showgrid="false"
     inkscape:window-width="1440"
     inkscape:window-height="802"
     inkscape:window-x="0"
     inkscape:window-y="1"
     inkscape:window-maximized="1" />
  <metadata
     id="metadata5">
    <rdf:RDF>
      <cc:Work
         rdf:about="">
        <dc:format>image/svg+xml</dc:format>
        <dc:type
           rdf:resource="http://purl.org/dc/dcmitype/StillImage" />
        <dc:title></dc:title>
      </cc:Work>
    </rdf:RDF>
  </metadata>
  <g
     inkscape:label="Layer 1"
     inkscape:groupmode="layer"
     id="layer1">
    <path
       style="fill:#000000;stroke-width:0.17638889"
       d="m 97.378839,169.74006 c -0.405396,-6.37724 -7.157086,-9.68372 -9.560906,-15.25195 -2.538788,-3.70512 -8.11049,-9.08551 -12.276856,-8.21505 -1.714852,1.50603 -3.865308,0.91271 -3.090941,-1.86664 -2.031277,0.82523 -4.304838,-2.11929 -3.591199,1.49996 -2.606588,-0.95544 -2.721954,6.93807 -4.112036,1.66797 -0.642384,-3.17113 -1.636928,3.71319 -4.189234,1.55318 1.311191,-5.87296 -3.786514,0.68667 -5.144037,0.78761 -2.776459,-2.41359 -2.972109,-5.06768 -1.200549,-7.39867 -2.966054,-0.41003 -2.505139,-2.88925 -0.810466,-4.5118 -4.167774,-0.6722 -2.038518,-2.09582 1.083337,-1.43963 0.825202,-3.09651 -3.736907,1.2797 -1.738419,-3.27842 -2.633347,2.3719 -3.418866,3.77283 -5.630886,2.74634 -2.494501,0.4224 -10.164797,2.21748 -7.108295,-2.15287 -0.251642,-4.29523 -4.14188,4.18467 -6.601778,1.49179 -1.665819,2.02878 -5.728297,-1.03857 -6.206349,-1.96675 -2.090301,-0.59739 1.924269,-3.47234 -0.298934,-5.09357 1.40623,-3.19049 3.144596,-3.46317 6.909819,-5.99098 -1.449329,-2.18554 5.457045,-0.618 1.959205,-3.37882 3.331599,0.33959 4.253603,-5.48296 0.09362,-3.03943 -0.791338,-1.82555 -7.894442,-2.57153 -3.62592,-4.34845 1.35732,-2.63268 -0.148234,-5.63735 4.087826,-5.88785 0.477829,-2.6412 -4.164,-1.30657 -1.79281,-3.28829 -3.217236,-1.18711 3.715725,-1.6415 4.302589,-3.143 2.890611,1.691 0.725095,-1.51031 3.686314,-0.572322 -2.738828,-2.007631 -2.823494,-3.830354 0.464581,-4.231388 -2.907075,-1.251117 -3.897052,-2.695907 -0.817355,-3.812662 -2.097331,-2.842608 -4.652263,4.595907 -3.091152,-0.735913 2.938483,-2.101072 -2.112089,-0.9114 -2.608914,0.123563 -4.083266,-1.856802 -1.591987,6.761729 -4.598233,1.36308 4.617226,-3.387386 -4.312479,-1.98822 -6.021017,0.380252 -3.294209,-1.728572 2.266817,-1.879372 2.451317,-3.601122 3.831069,-3.04543 -1.639029,0.377538 -3.379449,0.0759 -0.156424,-3.752273 4.192934,-3.4137 5.884715,-6.89197 3.440807,-1.680922 1.814018,4.346079 5.113995,0.89784 2.655592,0.987566 8.256257,7.653646 8.988833,2.36019 -1.736768,-3.824131 2.312097,-3.302163 5.017784,-2.521195 1.032181,-2.405012 2.923989,1.495346 3.082459,-2.046215 1.561381,-1.438771 8.498794,-4.256524 6.522688,-0.29218 3.23475,-2.109644 6.65418,3.345431 3.327116,4.95603 -2.77661,0.382673 -0.600593,-3.69617 -2.586306,-0.27359 -4.744891,1.020619 5.216947,4.320334 3.471551,0.99322 3.883894,0.660735 2.752467,4.595777 5.854577,1.50777 4.144911,-0.474406 8.253804,-0.307231 8.28367,-5.398753 3.527171,-0.778593 -5.206495,-2.78799 -1.906907,-4.977173 -5.186342,-1.201372 -1.252556,-3.124687 0.316998,-5.047874 -5.181516,-2.595182 4.774051,0.921037 0.75051,-3.068199 2.191715,3.500296 5.972451,-2.324854 2.005526,-3.153647 3.016085,-2.276772 0.44912,-1.962069 -0.284664,-2.363036 -1.350505,-5.559342 7.182984,0.627757 8.99261,-1.72959 1.778715,-1.477551 3.329768,-1.504463 0.88152,-2.905083 1.103534,0.777795 7.067507,-1.018228 4.74103,1.911024 2.998837,1.627273 3.953614,4.856865 4.81486,6.96314 1.702057,2.417084 3.354231,-1.14297 6.504781,-0.49502 2.14412,-1.074885 -1.5804,-3.074686 2.36004,-2.390155 0.54972,-1.518196 6.6844,-0.251448 2.19722,-3.117921 -2.46935,-2.775542 5.65943,-0.648791 2.06016,-3.441207 3.97443,-0.01585 7.29671,-0.476736 10.59758,1.904514 -2.54197,1.215616 4.86244,1.978398 4.34351,0.251819 1.2682,-1.864373 0.0377,-5.532327 3.63833,-3.114918 3.32901,2.127721 8.48623,-5.059234 11.49589,-1.576166 0.45884,-0.02401 7.99785,6.861801 1.33586,5.923106 0.62502,-2.648231 -7.911,1.653526 -2.78217,3.89438 -0.48403,2.206349 3.80747,0.504035 0.64699,2.511211 6.01005,0.291369 -1.00037,2.555998 2.04111,5.445728 -1.73579,4.355605 4.28414,1.27056 5.58982,4.738031 3.32717,1.660822 6.92799,0.07951 6.16293,4.785209 4.98156,2.869618 -2.48825,4.306751 -4.93831,5.439779 -1.73374,-2.210895 -5.55435,-1.441481 -3.10342,-4.485769 -3.88694,-0.746013 -2.67388,3.160575 -3.15097,4.54955 2.89201,1.37292 9.21195,3.994714 10.32749,3.811284 2.46543,1.286792 6.63068,1.120365 2.46617,-0.662684 -2.6657,-2.822527 4.94769,-3.265518 5.17906,0.383522 3.54147,1.199451 9.82565,-0.796688 9.18933,4.69364 0.56367,2.445965 -0.16879,6.50493 -1.22567,6.46684 2.75011,4.48584 0.58515,11.89202 1.26727,17.48164 1.45368,5.53285 -2.49459,9.45776 -7.25406,5.76681 0.10028,2.14932 2.31154,7.01253 -1.29405,3.37787 -3.1245,-3.50706 -0.93182,3.97963 -4.81749,2.45703 1.1714,-4.02324 -4.63125,-3.17982 -2.39338,0.0671 -3.59477,1.71848 -7.6364,-0.65927 -10.76932,1.55584 -0.64116,2.72059 -1.13035,7.77845 -4.89308,4.25056 -2.6124,1.96855 -4.43267,3.42012 -6.28621,3.5123 -3.56086,-1.4894 0.85133,6.70645 -3.31258,2.45914 -3.5239,-1.06772 2.86017,5.27058 -2.00009,2.40435 -1.19148,-3.1851 -6.34446,-6.41208 -5.29651,-1.085 -5.45855,2.94694 -7.50693,10.15969 -11.98875,14.55621 -3.33892,3.23513 -7.16409,7.5551 -7.26541,11.84327 -1.76507,-0.54842 -5.977446,1.35033 -5.447515,-1.49297 z m 0.59917,-9.50245 c 1.564191,-7.09693 -1.492128,-14.0169 -6.78714,-18.593 -2.829358,-0.10955 -5.535975,-0.96237 -8.343115,0.45605 -7.047055,2.64493 2.861725,5.04642 5.147639,8.5214 2.333081,2.01788 7.82253,12.49309 9.982616,9.61555 z m 7.373431,-0.35278 c 2.95697,-5.02389 9.78898,-10.22269 9.43828,-16.08917 -2.59922,0.79819 -5.55492,-0.19715 -5.97745,-3.65038 -3.48751,0.53625 -8.854949,1.60725 -5.84536,6.83707 -0.11186,2.68035 -1.04278,14.6149 2.38453,12.90248 z m -8.372331,-17.1009 c -2.658855,-4.7798 -2.114428,0.53403 0,0 z m -32.726096,-0.44097 c -1.608106,-0.29359 0.491592,1.22827 0,0 z M 106.97968,136.401 c -0.60596,-1.72632 -0.85448,0.91984 0,0 z m 1.29115,-1.18124 c -0.90012,-0.1049 -0.0798,0.90327 0,0 z m 56.48857,-9.60888 c -0.54787,-0.63969 -0.33473,0.88818 0,0 z m -65.458991,-3.84089 c 6.355351,0.70758 4.614401,-7.21621 0.307178,-6.85739 -0.670826,-7.5844 -6.430673,0.55018 -3.258942,4.28796 0.7419,1.77962 0.716046,3.66162 2.951764,2.56943 z m -49.506622,-0.23744 c 0.997942,-1.89344 -0.887165,-1.48305 -0.448118,-3.11177 -0.877572,1.49399 -1.981141,0.87961 -4.219583,0.32949 0.27777,-1.76617 -3.113704,1.20276 -4.716126,-1.49349 -1.552671,0.29541 1.015973,5.04199 2.324954,2.02188 3.388502,0.1369 4.450229,1.1202 6.16856,2.72291 l 0.803157,-0.0672 0.08716,-0.40179 z m 2.076727,-2.78001 c -0.334684,-0.8882 -0.547909,0.63966 0,0 z m 40.216655,-0.44098 c -0.411621,-0.60588 -0.508035,0.33618 0,0 z m 0.38274,-2.04442 c -2.480274,-7.94883 -2.347618,3.29131 0,0 z m 13.239481,0.40242 c 4.46656,-4.07188 -3.41852,-1.88215 -0.54072,0.27473 z m -40.080543,-0.22049 c -0.924779,-0.64995 -0.924779,0.64995 0,0 z m -19.402778,-0.43544 c -0.408637,-0.66813 -0.68925,0.85507 0,0 z m 64.039291,-1.70016 c 0.24183,-2.25283 -2.12716,1.54267 0,0 z m -3.73256,-0.98368 c 3.06005,-2.62249 -2.87956,-4.0862 -1.44475,0.2794 l 0.36392,0.37043 z M 78.240649,112.7449 c -2.095489,-1.45752 -2.236141,1.33664 0,0 z m 13.28279,-0.288 c -2.191813,-3.97834 -1.59003,2.14634 0,0 z m -16.369602,-3.32176 c -1.339601,-1.77247 -1.2421,0.83832 0,0 z m -38.452768,-1.44197 c -1.048341,-1.43932 -1.705916,0.1368 0,0 z m 39.858068,-1.73223 c -0.850117,-2.40455 -2.94426,1.09105 0,0 z m 73.030813,-0.007 c 4.50936,-1.75057 -4.38934,-0.19452 0,0 z m 6.87917,-0.0693 c -0.92369,-1.24553 -1.35782,0.78734 0,0 z M 42.777174,102.00025 c -0.147771,-1.08039 -1.886175,0.85631 0,0 z M 167.896,101.65965 c -0.42422,-0.81145 -0.97595,1.12339 0,0 z m -10.30792,-1.827532 c 0.0852,-1.748337 -1.09341,1.684122 0,0 z m -0.30603,-4.5012 c 0.67536,-2.515676 -2.67897,1.585963 0,0 z M 53.779627,93.636188 c -0.509851,-1.095038 -0.83991,1.179098 0,0 z m 111.873313,0.2289 c 0.51573,-1.453963 -3.82779,1.133823 0,-3e-5 z m -83.255971,-0.27186 c 3.301186,0.549494 3.472008,-3.08442 1.312511,-3.252425 2.446136,-4.079433 -7.793975,-0.587776 -2.938931,2.013615 0.920348,-0.616594 0.788755,2.360235 1.62642,1.23881 z m -32.484414,-0.28117 c 4.808159,-3.841462 -7.132417,-1.315646 -0.974542,0.227406 l 0.974542,-0.227416 z m -4.667832,-0.69819 c 1.10278,-1.933088 -2.315171,1.203363 0,0 z m 11.151033,-0.60227 c -1.078358,-1.852027 -3.871444,1.153012 0,0 z m 49.436714,-0.32947 c 0.2681,-1.236108 -1.2033,0.758696 0,0 z m -59.341818,-0.28028 c -0.213307,-0.64491 -0.435028,0.628353 0,0 z m 31.911957,-1.34179 c 1.267942,-2.200215 -3.297985,0.969093 0,0 z m 8.3929,-0.0693 c -1.160151,-0.652885 -1.160192,0.652872 0,0 z m 57.235941,0.004 c -0.59748,-2.556026 -2.28167,0.718476 0,0 z m -65.231221,-1.98803 c 2.433517,-2.44874 -5.886159,-0.310863 -0.83508,0.37583 z m 64.068551,-1.5283 c 0.20066,-1.74608 -2.83055,0.407324 0,0 z M 27.352458,85.914918 c -0.819082,-0.772931 -0.852479,1.130312 0,0 z m 11.036494,0.17554 c -0.754413,-1.64084 -2.438312,0.906413 0,0 z m 19.126006,-0.0832 c -0.61633,-0.785039 -0.625369,0.941685 0,0 z m -26.9875,-1.30822 c -0.964068,-0.645748 -0.656252,0.662375 0,0 z m 112.900482,-3.18121 c 0.9174,-1.654364 -2.57439,0.825004 0,0 z m -63.078161,-2.80383 c -0.275097,-0.989725 -0.857318,0.626255 0,0 z m 65.006841,-0.09 c -0.66483,-1.826124 -0.57143,1.473846 0,0 z m -3.52778,-3.2736 c -0.45067,-0.632791 -0.45067,0.632791 0,0 z M 84.326059,70.058725 c -0.785077,-1.278014 -0.656675,1.001721 0,0 z m -1.41111,-0.623573 c -1.1694,-0.994694 -1.195317,1.48352 0,0 z m 15.15002,0.382393 c 0.209288,-1.945929 -2.518336,0.740521 0,0 z M 113.07745,60.88651 c -0.68849,-0.644381 -0.68849,0.644381 0,0 z m 41.62778,110.24541 c -1.22128,-1.61094 3.50239,-6.17354 5.04208,-7.89636 3.96062,2.72212 4.76256,-6.39438 7.09561,-2.87942 -2.06953,2.15889 -0.64586,6.15785 -1.18741,8.84075 -0.68495,2.50939 -3.98734,2.25833 -6.94288,2.09336 -1.3335,-0.0381 -2.68212,0.0108 -4.0074,-0.15833 z M 41.283642,85.135778 c -0.52953,-1.540088 1.931868,1.246895 0,0 z m -13.48322,-2.61465 c -0.643455,-1.216914 1.558858,0.809573 0,0 z M 73.7754,78.040388 c 1.336584,-1.252674 0.860988,0.850243 0,0 z M 87.097529,59.772025 c -1.615346,-2.722872 3.113685,-0.560354 0,0 z m 34.975751,-0.454083 c 0.79076,-0.987592 0.91297,0.344279 0,0 z"
       id="path881"
       inkscape:connector-curvature="0" />
  </g>
  <g
     inkscape:groupmode="layer"
     id="layer2"
     inkscape:label="Layer 2"
     style="display:inline" />
</svg>
